<mxfile host="Electron" modified="2023-07-02T11:48:48.415Z" agent="Mozilla/5.0 (Windows NT 10.0; Win64; x64) AppleWebKit/537.36 (KHTML, like Gecko) draw.io/21.5.1 Chrome/112.0.5615.204 Electron/24.6.0 Safari/537.36" etag="yAxzyOMy-7wKi_Wm9nsN" version="21.5.1" type="device">
  <diagram name="ページ1" id="RuYHagftPxLtHA9Mro0g">
    <mxGraphModel dx="1418" dy="828" grid="1" gridSize="10" guides="1" tooltips="1" connect="1" arrows="1" fold="1" page="1" pageScale="1" pageWidth="827" pageHeight="1169" math="0" shadow="0">
      <root>
        <mxCell id="0" />
        <mxCell id="1" parent="0" />
        <mxCell id="6kSdBfVFSFCKMOsitOe4-5" value="Player" style="swimlane;fontStyle=1;align=center;verticalAlign=top;childLayout=stackLayout;horizontal=1;startSize=26;horizontalStack=0;resizeParent=1;resizeParentMax=0;resizeLast=0;collapsible=1;marginBottom=0;whiteSpace=wrap;html=1;fontFamily=Courier New;" parent="1" vertex="1">
          <mxGeometry x="20" y="30" width="550" height="660" as="geometry" />
        </mxCell>
        <mxCell id="6kSdBfVFSFCKMOsitOe4-6" value="- Movie&amp;nbsp; &amp;nbsp; &amp;nbsp; &amp;nbsp; &amp;nbsp; &amp;nbsp; &amp;nbsp; &amp;nbsp;: static std::vector&amp;lt;std::vector&amp;lt;std::vector&amp;lt;Dot&amp;gt;&amp;gt;&amp;gt;&lt;br&gt;- Queue&amp;nbsp; &amp;nbsp; &amp;nbsp; &amp;nbsp; &amp;nbsp; &amp;nbsp; &amp;nbsp; &amp;nbsp;: static std::list&amp;lt;MediaInfo&amp;gt;&lt;br&gt;- NowPlaying&amp;nbsp; &amp;nbsp; &amp;nbsp; &amp;nbsp; &amp;nbsp; : static std::list&amp;lt;MediaInfo&amp;gt;::iterator&lt;br&gt;- Status&amp;nbsp; &amp;nbsp; &amp;nbsp; &amp;nbsp; &amp;nbsp; &amp;nbsp; &amp;nbsp; : static enum PlayStatus&lt;br&gt;- PlayPosition&amp;nbsp; &amp;nbsp; &amp;nbsp; &amp;nbsp; : static std::chrono::milliseconds&lt;br&gt;- MatrixSize&amp;nbsp; &amp;nbsp; &amp;nbsp; &amp;nbsp; &amp;nbsp; : static std::pair&amp;lt;unsigned char, unsigned char&amp;gt;&lt;br&gt;- SoundVolume&amp;nbsp; &amp;nbsp; &amp;nbsp; &amp;nbsp; &amp;nbsp;: static unsigned char&lt;br&gt;- ColorDepth&amp;nbsp; &amp;nbsp; &amp;nbsp; &amp;nbsp; &amp;nbsp; : static enum ColorDepthID&lt;br&gt;- Gamma&amp;nbsp; &amp;nbsp; &amp;nbsp; &amp;nbsp; &amp;nbsp; &amp;nbsp; &amp;nbsp; &amp;nbsp;: static float&lt;br&gt;- ActualFPS&amp;nbsp; &amp;nbsp; &amp;nbsp; &amp;nbsp; &amp;nbsp; &amp;nbsp;: static unsigned int&lt;br&gt;- InstantFPS&amp;nbsp; &amp;nbsp; &amp;nbsp; &amp;nbsp; &amp;nbsp; : static float&lt;br&gt;- isMonochromized&amp;nbsp; &amp;nbsp; &amp;nbsp;: static bool&lt;br&gt;- isNegativized&amp;nbsp; &amp;nbsp; &amp;nbsp; &amp;nbsp;: static bool&lt;br&gt;- isFullScreen&amp;nbsp; &amp;nbsp; &amp;nbsp; &amp;nbsp; : static bool&lt;br&gt;- isRepeatOne&amp;nbsp; &amp;nbsp; &amp;nbsp; &amp;nbsp; &amp;nbsp;: static bool&lt;br&gt;- isRepeatAll&amp;nbsp; &amp;nbsp; &amp;nbsp; &amp;nbsp; &amp;nbsp;: static bool&lt;br&gt;- isPaused&amp;nbsp; &amp;nbsp; &amp;nbsp; &amp;nbsp; &amp;nbsp; &amp;nbsp; : static bool&lt;br&gt;- isStatusDisplayed&amp;nbsp; &amp;nbsp;: static bool&lt;br&gt;- isKeyGuideDisplayed : static bool&lt;br&gt;- isQueueDisplayed&amp;nbsp; &amp;nbsp; : static bool" style="text;strokeColor=none;fillColor=none;align=left;verticalAlign=top;spacingLeft=4;spacingRight=4;overflow=hidden;rotatable=0;points=[[0,0.5],[1,0.5]];portConstraint=eastwest;whiteSpace=wrap;html=1;fontFamily=Courier New;" parent="6kSdBfVFSFCKMOsitOe4-5" vertex="1">
          <mxGeometry y="26" width="550" height="354" as="geometry" />
        </mxCell>
        <mxCell id="6kSdBfVFSFCKMOsitOe4-7" value="" style="line;strokeWidth=1;fillColor=none;align=left;verticalAlign=middle;spacingTop=-1;spacingLeft=3;spacingRight=3;rotatable=0;labelPosition=right;points=[];portConstraint=eastwest;strokeColor=inherit;fontFamily=Courier New;" parent="6kSdBfVFSFCKMOsitOe4-5" vertex="1">
          <mxGeometry y="380" width="550" height="8" as="geometry" />
        </mxCell>
        <mxCell id="6kSdBfVFSFCKMOsitOe4-8" value="- Player()&amp;nbsp; &amp;nbsp; &amp;nbsp; &amp;nbsp; &amp;nbsp; &amp;nbsp; &amp;nbsp; &amp;nbsp; &amp;nbsp; &amp;nbsp; &amp;nbsp; &amp;nbsp;: void&lt;br&gt;+ Initialize()&amp;nbsp; &amp;nbsp; &amp;nbsp; &amp;nbsp; &amp;nbsp; &amp;nbsp; &amp;nbsp; &amp;nbsp; &amp;nbsp; &amp;nbsp;: static void&lt;br&gt;+ Update()&amp;nbsp; &amp;nbsp; &amp;nbsp; &amp;nbsp; &amp;nbsp; &amp;nbsp; &amp;nbsp; &amp;nbsp; &amp;nbsp; &amp;nbsp; &amp;nbsp; &amp;nbsp;: static void&lt;br&gt;+ Enqueue(std::filesystem::path) : static void&lt;br&gt;- ReactToKeyInput&amp;nbsp; &amp;nbsp; &amp;nbsp; &amp;nbsp; &amp;nbsp; &amp;nbsp; &amp;nbsp; &amp;nbsp; : static void&lt;br&gt;- DrawDots()&amp;nbsp; &amp;nbsp; &amp;nbsp; &amp;nbsp; &amp;nbsp; &amp;nbsp; &amp;nbsp; &amp;nbsp; &amp;nbsp; &amp;nbsp; &amp;nbsp;: static void&lt;br&gt;- DrawStatus()&amp;nbsp; &amp;nbsp; &amp;nbsp; &amp;nbsp; &amp;nbsp; &amp;nbsp; &amp;nbsp; &amp;nbsp; &amp;nbsp; &amp;nbsp;: static void&lt;br&gt;- DrawKeyGuide()&amp;nbsp; &amp;nbsp; &amp;nbsp; &amp;nbsp; &amp;nbsp; &amp;nbsp; &amp;nbsp; &amp;nbsp; &amp;nbsp;: static void&lt;br&gt;- DrawQueue()&amp;nbsp; &amp;nbsp; &amp;nbsp; &amp;nbsp; &amp;nbsp; &amp;nbsp; &amp;nbsp; &amp;nbsp; &amp;nbsp; &amp;nbsp; : static void&lt;br&gt;- SwitchWindowMode()&amp;nbsp; &amp;nbsp; &amp;nbsp; &amp;nbsp; &amp;nbsp; &amp;nbsp; &amp;nbsp;: static void&lt;br&gt;- MeasureFPS()&amp;nbsp; &amp;nbsp; &amp;nbsp; &amp;nbsp; &amp;nbsp; &amp;nbsp; &amp;nbsp; &amp;nbsp; &amp;nbsp; &amp;nbsp;: static void&lt;br&gt;- ShuffleQueue()&amp;nbsp; &amp;nbsp; &amp;nbsp; &amp;nbsp; &amp;nbsp; &amp;nbsp; &amp;nbsp; &amp;nbsp; &amp;nbsp;: static void" style="text;strokeColor=none;fillColor=none;align=left;verticalAlign=top;spacingLeft=4;spacingRight=4;overflow=hidden;rotatable=0;points=[[0,0.5],[1,0.5]];portConstraint=eastwest;whiteSpace=wrap;html=1;fontFamily=Courier New;" parent="6kSdBfVFSFCKMOsitOe4-5" vertex="1">
          <mxGeometry y="388" width="550" height="272" as="geometry" />
        </mxCell>
        <mxCell id="6kSdBfVFSFCKMOsitOe4-13" value="Dot" style="swimlane;fontStyle=1;align=center;verticalAlign=top;childLayout=stackLayout;horizontal=1;startSize=26;horizontalStack=0;resizeParent=1;resizeParentMax=0;resizeLast=0;collapsible=1;marginBottom=0;whiteSpace=wrap;html=1;fontFamily=Courier New;" parent="1" vertex="1">
          <mxGeometry x="610" y="340" width="430" height="280" as="geometry" />
        </mxCell>
        <mxCell id="6kSdBfVFSFCKMOsitOe4-14" value="- R : unsigned char&lt;br&gt;- G : unsigned char&lt;br&gt;- B : unsigned char" style="text;strokeColor=none;fillColor=none;align=left;verticalAlign=top;spacingLeft=4;spacingRight=4;overflow=hidden;rotatable=0;points=[[0,0.5],[1,0.5]];portConstraint=eastwest;whiteSpace=wrap;html=1;fontFamily=Courier New;" parent="6kSdBfVFSFCKMOsitOe4-13" vertex="1">
          <mxGeometry y="26" width="430" height="114" as="geometry" />
        </mxCell>
        <mxCell id="6kSdBfVFSFCKMOsitOe4-15" value="" style="line;strokeWidth=1;fillColor=none;align=left;verticalAlign=middle;spacingTop=-1;spacingLeft=3;spacingRight=3;rotatable=0;labelPosition=right;points=[];portConstraint=eastwest;strokeColor=inherit;fontFamily=Courier New;" parent="6kSdBfVFSFCKMOsitOe4-13" vertex="1">
          <mxGeometry y="140" width="430" height="8" as="geometry" />
        </mxCell>
        <mxCell id="6kSdBfVFSFCKMOsitOe4-16" value="&amp;lt;&amp;lt;constructor&amp;gt;&amp;gt;&lt;br&gt;+ Dot(unsigned char, unsigned char, unsigned char) : void&lt;br&gt;&lt;br&gt;+ Monochromize()&amp;nbsp; : void&lt;br&gt;+ Negativize()&amp;nbsp; &amp;nbsp; : void&lt;br&gt;+ Quantize()&amp;nbsp; &amp;nbsp; &amp;nbsp; : void&lt;br&gt;+ GammaEqualize() : void" style="text;strokeColor=none;fillColor=none;align=left;verticalAlign=top;spacingLeft=4;spacingRight=4;overflow=hidden;rotatable=0;points=[[0,0.5],[1,0.5]];portConstraint=eastwest;whiteSpace=wrap;html=1;fontFamily=Courier New;" parent="6kSdBfVFSFCKMOsitOe4-13" vertex="1">
          <mxGeometry y="148" width="430" height="132" as="geometry" />
        </mxCell>
        <mxCell id="6kSdBfVFSFCKMOsitOe4-25" value="KeyPushFlags" style="swimlane;fontStyle=1;align=center;verticalAlign=top;childLayout=stackLayout;horizontal=1;startSize=26;horizontalStack=0;resizeParent=1;resizeParentMax=0;resizeLast=0;collapsible=1;marginBottom=0;whiteSpace=wrap;html=1;fontFamily=Courier New;" parent="1" vertex="1">
          <mxGeometry x="1070" y="340" width="230" height="458" as="geometry" />
        </mxCell>
        <mxCell id="6kSdBfVFSFCKMOsitOe4-26" value="+ F1&amp;nbsp; &amp;nbsp; &amp;nbsp; &amp;nbsp; &amp;nbsp;: static bool&lt;br&gt;+ F2&amp;nbsp; &amp;nbsp; &amp;nbsp; &amp;nbsp; &amp;nbsp;: static bool&lt;br&gt;+ F3&amp;nbsp; &amp;nbsp; &amp;nbsp; &amp;nbsp; &amp;nbsp;: static bool&lt;br&gt;+ F11&amp;nbsp; &amp;nbsp; &amp;nbsp; &amp;nbsp; : static bool&lt;br&gt;+ W&amp;nbsp; &amp;nbsp; &amp;nbsp; &amp;nbsp; &amp;nbsp; : static bool&lt;br&gt;+ S&amp;nbsp; &amp;nbsp; &amp;nbsp; &amp;nbsp; &amp;nbsp; : static bool&lt;br&gt;+ A&amp;nbsp; &amp;nbsp; &amp;nbsp; &amp;nbsp; &amp;nbsp; : static bool&lt;br&gt;+ D&amp;nbsp; &amp;nbsp; &amp;nbsp; &amp;nbsp; &amp;nbsp; : static bool&lt;br&gt;+ Space&amp;nbsp; &amp;nbsp; &amp;nbsp; : static bool&lt;br&gt;+ Left&amp;nbsp; &amp;nbsp; &amp;nbsp; &amp;nbsp;: static bool&lt;br&gt;+ Right&amp;nbsp; &amp;nbsp; &amp;nbsp; : static bool&lt;br&gt;+ Up&amp;nbsp; &amp;nbsp; &amp;nbsp; &amp;nbsp; &amp;nbsp;: static bool&lt;br&gt;+ Down&amp;nbsp; &amp;nbsp; &amp;nbsp; &amp;nbsp;: static bool&lt;br&gt;+ Z&amp;nbsp; &amp;nbsp; &amp;nbsp; &amp;nbsp; &amp;nbsp; : static bool&lt;br&gt;+ C&amp;nbsp; &amp;nbsp; &amp;nbsp; &amp;nbsp;&amp;nbsp; &amp;nbsp;: static bool&lt;br&gt;+ B&amp;nbsp; &amp;nbsp; &amp;nbsp; &amp;nbsp; &amp;nbsp; : static bool&lt;br&gt;+ R&amp;nbsp; &amp;nbsp; &amp;nbsp; &amp;nbsp; &amp;nbsp; : static bool&lt;br&gt;+ T&amp;nbsp; &amp;nbsp; &amp;nbsp; &amp;nbsp; &amp;nbsp; : static bool&amp;nbsp;&lt;br&gt;+ F&amp;nbsp; &amp;nbsp; &amp;nbsp; &amp;nbsp; &amp;nbsp; : static bool&lt;br&gt;+ M&amp;nbsp; &amp;nbsp; &amp;nbsp; &amp;nbsp; &amp;nbsp; : static bool&lt;br&gt;+ N&amp;nbsp; &amp;nbsp; &amp;nbsp; &amp;nbsp; &amp;nbsp; : static bool&lt;br&gt;+ O&amp;nbsp; &amp;nbsp; &amp;nbsp; &amp;nbsp; &amp;nbsp; : static bool&lt;br&gt;+ Enter&amp;nbsp; &amp;nbsp; &amp;nbsp; : static bool&lt;br&gt;+ Delete&amp;nbsp; &amp;nbsp; &amp;nbsp;: static bool&lt;br&gt;+ Escape&amp;nbsp; &amp;nbsp; &amp;nbsp;: static bool" style="text;strokeColor=none;fillColor=none;align=left;verticalAlign=top;spacingLeft=4;spacingRight=4;overflow=hidden;rotatable=0;points=[[0,0.5],[1,0.5]];portConstraint=eastwest;whiteSpace=wrap;html=1;fontFamily=Courier New;" parent="6kSdBfVFSFCKMOsitOe4-25" vertex="1">
          <mxGeometry y="26" width="230" height="374" as="geometry" />
        </mxCell>
        <mxCell id="6kSdBfVFSFCKMOsitOe4-27" value="" style="line;strokeWidth=1;fillColor=none;align=left;verticalAlign=middle;spacingTop=-1;spacingLeft=3;spacingRight=3;rotatable=0;labelPosition=right;points=[];portConstraint=eastwest;strokeColor=inherit;fontFamily=Courier New;" parent="6kSdBfVFSFCKMOsitOe4-25" vertex="1">
          <mxGeometry y="400" width="230" height="8" as="geometry" />
        </mxCell>
        <mxCell id="6kSdBfVFSFCKMOsitOe4-28" value="- KeyPushFlags() : void&lt;br&gt;+ Initialize()&amp;nbsp; &amp;nbsp;: static void" style="text;strokeColor=none;fillColor=none;align=left;verticalAlign=top;spacingLeft=4;spacingRight=4;overflow=hidden;rotatable=0;points=[[0,0.5],[1,0.5]];portConstraint=eastwest;whiteSpace=wrap;html=1;fontFamily=Courier New;" parent="6kSdBfVFSFCKMOsitOe4-25" vertex="1">
          <mxGeometry y="408" width="230" height="50" as="geometry" />
        </mxCell>
        <mxCell id="6kSdBfVFSFCKMOsitOe4-30" value="MediaInfo" style="swimlane;fontStyle=1;align=center;verticalAlign=top;childLayout=stackLayout;horizontal=1;startSize=26;horizontalStack=0;resizeParent=1;resizeParentMax=0;resizeLast=0;collapsible=1;marginBottom=0;whiteSpace=wrap;html=1;fontFamily=Courier New;" parent="1" vertex="1">
          <mxGeometry x="610" y="30" width="500" height="264" as="geometry" />
        </mxCell>
        <mxCell id="6kSdBfVFSFCKMOsitOe4-31" value="&lt;font&gt;+ FilePath&amp;nbsp; &amp;nbsp; &amp;nbsp; &amp;nbsp; &amp;nbsp; : const std::filesystem::path&lt;br style=&quot;border-color: var(--border-color);&quot;&gt;+ Name&amp;nbsp; &amp;nbsp; &amp;nbsp; &amp;nbsp; &amp;nbsp; &amp;nbsp; &amp;nbsp; : const std::u8string&lt;br style=&quot;border-color: var(--border-color);&quot;&gt;+ TotalFrames&amp;nbsp; &amp;nbsp; &amp;nbsp; &amp;nbsp;: const unsigned int&lt;br style=&quot;border-color: var(--border-color);&quot;&gt;+ Duration&amp;nbsp; &amp;nbsp; &amp;nbsp; &amp;nbsp; &amp;nbsp; : const std::chrono::seconds&lt;br style=&quot;border-color: var(--border-color);&quot;&gt;+ FrameRate&amp;nbsp; &amp;nbsp; &amp;nbsp; &amp;nbsp; &amp;nbsp;: const float&lt;br style=&quot;border-color: var(--border-color);&quot;&gt;+ AudioCodec&amp;nbsp; &amp;nbsp; &amp;nbsp; &amp;nbsp; : const&lt;br style=&quot;border-color: var(--border-color);&quot;&gt;+ AudioSamplingRate : const unsigned int&lt;br style=&quot;border-color: var(--border-color);&quot;&gt;+ AudioBitRate&amp;nbsp; &amp;nbsp; &amp;nbsp; : const unsigned int&lt;br style=&quot;border-color: var(--border-color);&quot;&gt;+ VideoCodec&amp;nbsp; &amp;nbsp; &amp;nbsp; &amp;nbsp; : const&lt;br style=&quot;border-color: var(--border-color);&quot;&gt;+ VideoBitRate&amp;nbsp; &amp;nbsp; &amp;nbsp; : const unsigned int&lt;br style=&quot;border-color: var(--border-color);&quot;&gt;+ ImageResolution&amp;nbsp; &amp;nbsp;: const std::pair&amp;lt;unsigned int, unsigned int&amp;gt;&lt;br style=&quot;border-color: var(--border-color);&quot;&gt;+ DataSize&amp;nbsp; &amp;nbsp; &amp;nbsp; &amp;nbsp; &amp;nbsp; : const float&lt;/font&gt;" style="text;strokeColor=none;fillColor=none;align=left;verticalAlign=top;spacingLeft=4;spacingRight=4;overflow=hidden;rotatable=0;points=[[0,0.5],[1,0.5]];portConstraint=eastwest;whiteSpace=wrap;html=1;fontFamily=Courier New;" parent="6kSdBfVFSFCKMOsitOe4-30" vertex="1">
          <mxGeometry y="26" width="500" height="204" as="geometry" />
        </mxCell>
        <mxCell id="6kSdBfVFSFCKMOsitOe4-32" value="" style="line;strokeWidth=1;fillColor=none;align=left;verticalAlign=middle;spacingTop=-1;spacingLeft=3;spacingRight=3;rotatable=0;labelPosition=right;points=[];portConstraint=eastwest;strokeColor=inherit;" parent="6kSdBfVFSFCKMOsitOe4-30" vertex="1">
          <mxGeometry y="230" width="500" height="8" as="geometry" />
        </mxCell>
        <mxCell id="6kSdBfVFSFCKMOsitOe4-33" value="&lt;font face=&quot;Courier New&quot;&gt;+ MediaInfo(std::u8string) : void&lt;/font&gt;" style="text;strokeColor=none;fillColor=none;align=left;verticalAlign=top;spacingLeft=4;spacingRight=4;overflow=hidden;rotatable=0;points=[[0,0.5],[1,0.5]];portConstraint=eastwest;whiteSpace=wrap;html=1;" parent="6kSdBfVFSFCKMOsitOe4-30" vertex="1">
          <mxGeometry y="238" width="500" height="26" as="geometry" />
        </mxCell>
        <mxCell id="6kSdBfVFSFCKMOsitOe4-34" value="&amp;lt;&amp;lt;utility&amp;gt;&amp;gt;&lt;br&gt;&lt;br&gt;Utils" style="swimlane;fontStyle=1;align=center;verticalAlign=top;childLayout=stackLayout;horizontal=1;startSize=50;horizontalStack=0;resizeParent=1;resizeParentMax=0;resizeLast=0;collapsible=1;marginBottom=0;whiteSpace=wrap;html=1;fontFamily=Courier New;" parent="1" vertex="1">
          <mxGeometry x="610" y="640" width="400" height="224" as="geometry" />
        </mxCell>
        <mxCell id="6kSdBfVFSFCKMOsitOe4-35" value="&lt;font&gt;+ field: type&lt;/font&gt;" style="text;strokeColor=none;fillColor=none;align=left;verticalAlign=top;spacingLeft=4;spacingRight=4;overflow=hidden;rotatable=0;points=[[0,0.5],[1,0.5]];portConstraint=eastwest;whiteSpace=wrap;html=1;fontFamily=Courier New;" parent="6kSdBfVFSFCKMOsitOe4-34" vertex="1">
          <mxGeometry y="50" width="400" height="26" as="geometry" />
        </mxCell>
        <mxCell id="6kSdBfVFSFCKMOsitOe4-36" value="" style="line;strokeWidth=1;fillColor=none;align=left;verticalAlign=middle;spacingTop=-1;spacingLeft=3;spacingRight=3;rotatable=0;labelPosition=right;points=[];portConstraint=eastwest;strokeColor=inherit;" parent="6kSdBfVFSFCKMOsitOe4-34" vertex="1">
          <mxGeometry y="76" width="400" height="8" as="geometry" />
        </mxCell>
        <mxCell id="6kSdBfVFSFCKMOsitOe4-37" value="&lt;font face=&quot;Courier New&quot;&gt;- Utils() : void&lt;br&gt;+ OpenFiles() : std::vector&amp;lt;std::filesystem::path&amp;gt;&lt;br&gt;&lt;/font&gt;" style="text;strokeColor=none;fillColor=none;align=left;verticalAlign=top;spacingLeft=4;spacingRight=4;overflow=hidden;rotatable=0;points=[[0,0.5],[1,0.5]];portConstraint=eastwest;whiteSpace=wrap;html=1;" parent="6kSdBfVFSFCKMOsitOe4-34" vertex="1">
          <mxGeometry y="84" width="400" height="140" as="geometry" />
        </mxCell>
      </root>
    </mxGraphModel>
  </diagram>
</mxfile>
